<svg width="12" height="12" viewBox="0 0 12 12" fill="none" xmlns="http://www.w3.org/2000/svg">
<path d="M5.32595 0.669502C5.60168 0.110167 6.39832 0.110166 6.67405 0.669501L7.94584 3.24949C8.05532 3.4716 8.26697 3.62555 8.51179 3.66117L11.3556 4.07489C11.9721 4.16458 12.2183 4.92314 11.7722 5.35852L9.71439 7.36676C9.53723 7.53965 9.45639 7.78875 9.49821 8.03288L9.98399 10.8686C10.0893 11.4833 9.4448 11.9521 8.89336 11.6619L6.34978 10.3231C6.1308 10.2078 5.8692 10.2078 5.65022 10.3231L3.10664 11.6619C2.5552 11.9521 1.91069 11.4833 2.01601 10.8686L2.50179 8.03288C2.54361 7.78875 2.46277 7.53965 2.28561 7.36676L0.227816 5.35852C-0.21831 4.92314 0.0278667 4.16458 0.644398 4.07489L3.48821 3.66117C3.73303 3.62555 3.94467 3.4716 4.05416 3.24949L5.32595 0.669502Z" fill="#FAD98C"/>
</svg>
