<svg width="16" height="18" viewBox="0 0 16 18" fill="none" xmlns="http://www.w3.org/2000/svg">
<path fill-rule="evenodd" clip-rule="evenodd" d="M14.9461 0.77025C14.7352 0.528338 14.475 0.334438 14.1831 0.201582C13.8911 0.0687262 13.5741 -7.7902e-06 13.2534 6.62212e-10L2.7465 6.62254e-10C2.42585 5.74554e-05 2.10892 0.0688416 1.81701 0.20173C1.5251 0.334619 1.26498 0.528534 1.05412 0.770445C0.843264 1.01236 0.686555 1.29666 0.594527 1.60425C0.502498 1.91184 0.477281 2.23559 0.520569 2.55375L2.18253 14.7562C2.30733 15.6537 2.75134 16.4759 3.43297 17.0718C4.1146 17.6677 4.98808 17.9973 5.89292 18H10.107C11.0118 17.9973 11.8851 17.6678 12.5668 17.0721C13.2484 16.4763 13.6924 15.6543 13.8174 14.757L15.4794 2.55375C15.5227 2.23558 15.4976 1.9118 15.4056 1.60418C15.3136 1.29655 15.1569 1.01221 14.9461 0.77025ZM3.66615 14.5494L3.66642 14.5513C3.74183 15.0902 4.00869 15.5839 4.41811 15.9418C4.82749 16.2997 5.35195 16.4979 5.89535 16.5H10.1046C10.648 16.4979 11.1724 16.2998 11.5817 15.942C11.9911 15.5842 12.258 15.0907 12.3335 14.5519L12.3338 14.5498L12.6811 12L12.8854 10.5L13.0897 9H2.91034L3.11464 10.5L3.31893 12L3.66615 14.5494ZM2.43694 1.56724C2.53416 1.52298 2.63998 1.50006 2.74677 1.5H13.2534C13.3603 1.5 13.466 1.52291 13.5633 1.56719C13.6607 1.61148 13.7474 1.67611 13.8177 1.75675C13.8878 1.83734 13.94 1.93201 13.9706 2.03442C14.0013 2.13697 14.0096 2.245 13.9952 2.35106L13.2939 7.5H2.70604L2.00478 2.35117C1.99037 2.24514 1.99878 2.13725 2.02945 2.03475C2.06012 1.93222 2.11236 1.83745 2.18264 1.75682C2.25293 1.67618 2.33964 1.61154 2.43694 1.56724Z" fill="#D6DCE1"/>
</svg>
