<svg width="19" height="18" viewBox="0 0 19 18" fill="none" xmlns="http://www.w3.org/2000/svg">
<path d="M12.5434 17.7944C12.7992 17.9016 13.0737 17.9572 13.3511 17.958C13.6374 17.9586 13.9209 17.9021 14.185 17.7919C14.5763 17.6341 14.9108 17.3625 15.145 17.0122C15.3792 16.662 15.5023 16.2495 15.4981 15.8285V6H13.25C12.0074 6 11 4.99264 11 3.75C11 2.50736 12.0074 1.5 13.25 1.5H14.7508C14.6439 1.3574 14.5267 1.22228 14.3999 1.09579C14.0517 0.748379 13.6384 0.472801 13.1835 0.284785C12.7286 0.0967702 12.241 0 11.7486 0L4.24955 0.0394199C3.25513 0.0394199 2.30144 0.433586 1.59828 1.13521C0.895123 1.83683 0.500092 2.78843 0.500092 3.78067V15.8679C0.496131 16.2893 0.619603 16.702 0.854385 17.0523C1.08917 17.4026 1.42435 17.674 1.81615 17.8313C2.20411 17.9968 2.63304 18.0419 3.04704 17.9606C3.46103 17.8793 3.84088 17.6754 4.13707 17.3756L7.99901 12.7584L11.8611 17.3332C12.0558 17.5304 12.2877 17.6871 12.5434 17.7944Z" fill="#EDF0F2"/>
<path d="M18.5 3.75C18.5 3.33579 18.1642 3 17.75 3H13.25C12.8358 3 12.5 3.33579 12.5 3.75C12.5 4.16421 12.8358 4.5 13.25 4.5H17.75C18.1642 4.5 18.5 4.16421 18.5 3.75Z" fill="#EDF0F2"/>
</svg>
