<svg width="18" height="18" viewBox="0 0 18 18" fill="none" xmlns="http://www.w3.org/2000/svg">
<path fill-rule="evenodd" clip-rule="evenodd" d="M9 2.34573L7.42666 5.53745C7.04432 6.31308 6.30475 6.85152 5.44826 6.97613L1.92651 7.48847L4.47608 9.97664C5.09508 10.5807 5.37711 11.4505 5.23115 12.3026L4.62966 15.8137L7.77667 14.1572C8.54247 13.7541 9.45754 13.7542 10.2233 14.1572L13.3703 15.8137L12.7689 12.3026C12.6229 11.4505 12.9049 10.5807 13.5239 9.97663L16.0735 7.48847L12.5517 6.97613C11.6952 6.85152 10.9557 6.31308 10.5733 5.53745L9 2.34573ZM10.0111 1.00425C9.59749 0.165248 8.40251 0.16525 7.98893 1.00425L6.08125 4.87423C5.91701 5.2074 5.59955 5.43833 5.23231 5.49175L0.966597 6.11233C0.0418001 6.24687 -0.327466 7.38471 0.341724 8.03778L3.42842 11.0501C3.69416 11.3095 3.81542 11.6831 3.75269 12.0493L3.02402 16.3028C2.86604 17.225 3.8328 17.9282 4.65996 17.4928L8.47533 15.4846C8.8038 15.3117 9.1962 15.3117 9.52467 15.4846L13.34 17.4928C14.1672 17.9282 15.134 17.225 14.976 16.3028L14.2473 12.0493C14.1846 11.6831 14.3058 11.3095 14.5716 11.0501L17.6583 8.03778C18.3275 7.38471 17.9582 6.24687 17.0334 6.11233L12.7677 5.49175C12.4005 5.43833 12.083 5.2074 11.9188 4.87423L10.0111 1.00425Z" fill="#6D7488"/>
</svg>
