<svg width="18" height="18" viewBox="0 0 18 18" fill="none" xmlns="http://www.w3.org/2000/svg">
<path d="M7.98893 1.00425C8.40251 0.16525 9.59749 0.165248 10.0111 1.00425L11.9188 4.87423C12.083 5.2074 12.4005 5.43833 12.7677 5.49175L17.0334 6.11233C17.9582 6.24687 18.3275 7.38471 17.6583 8.03778L14.5716 11.0501C14.3058 11.3095 14.1846 11.6831 14.2473 12.0493L14.976 16.3028C15.134 17.225 14.1672 17.9282 13.34 17.4928L9.52467 15.4846C9.19621 15.3117 8.8038 15.3117 8.47533 15.4846L4.65996 17.4928C3.8328 17.9282 2.86604 17.225 3.02402 16.3028L3.75269 12.0493C3.81542 11.6831 3.69416 11.3095 3.42842 11.0501L0.341724 8.03778C-0.327466 7.38471 0.0418001 6.24687 0.966597 6.11233L5.23231 5.49175C5.59955 5.43833 5.91701 5.2074 6.08125 4.87423L7.98893 1.00425Z" fill="#98A1AE"/>
</svg>
