<svg width="19" height="18" viewBox="0 0 19 18" fill="none" xmlns="http://www.w3.org/2000/svg">
<path fill-rule="evenodd" clip-rule="evenodd" d="M14.75 1.78814e-07C15.1642 1.78814e-07 15.5 0.335787 15.5 0.75V3H17.75C18.1642 3 18.5 3.33579 18.5 3.75C18.5 4.16421 18.1642 4.5 17.75 4.5H15.5V6.75C15.5 7.16421 15.1642 7.5 14.75 7.5C14.3358 7.5 14 7.16421 14 6.75V4.5H11.75C11.3358 4.5 11 4.16421 11 3.75C11 3.33579 11.3358 3 11.75 3H14V0.75C14 0.335787 14.3358 1.78814e-07 14.75 1.78814e-07Z" fill="white"/>
<path d="M12.5434 17.7944C12.7992 17.9016 13.0737 17.9572 13.3511 17.958C13.6374 17.9586 13.9209 17.9021 14.185 17.7919C14.5763 17.6341 14.9108 17.3625 15.145 17.0122C15.3792 16.662 15.5023 16.2495 15.4981 15.8285V11.2492C15.4981 10.8354 15.1627 10.5 14.7489 10.5C14.3352 10.5 13.9998 10.8354 13.9998 11.2492V15.827C14.0001 15.9516 13.9633 16.0736 13.8941 16.1775C13.825 16.2813 13.7265 16.3624 13.6112 16.4104C13.4959 16.4584 13.3689 16.4713 13.2463 16.4474C13.1236 16.4234 13.0109 16.3638 12.9222 16.2759L8.53143 11.1736C8.39093 11.0342 8.20087 10.956 8.00276 10.956C7.80465 10.956 7.61459 11.0342 7.47408 11.1736L3.07747 16.3168C2.9888 16.4047 2.87603 16.4644 2.7534 16.4883C2.63076 16.5122 2.50377 16.4994 2.38846 16.4513C2.27315 16.4033 2.1747 16.3222 2.10554 16.2184C2.03637 16.1145 1.9996 15.9926 1.99988 15.8679V3.78067C1.99988 3.18532 2.23689 2.61436 2.65879 2.19339C3.08069 1.77242 3.6529 1.51971 4.24955 1.51971L8.75 1.5C9.16421 1.5 9.5 1.16421 9.5 0.75C9.5 0.335787 9.16421 1.78814e-07 8.75 1.78814e-07L4.24955 0.0232129C3.25513 0.0232129 2.30144 0.433586 1.59828 1.13521C0.895123 1.83683 0.500092 2.78843 0.500092 3.78067V15.8679C0.496131 16.2893 0.619603 16.702 0.854385 17.0523C1.08917 17.4026 1.42435 17.674 1.81615 17.8313C2.20411 17.9968 2.63304 18.0419 3.04704 17.9606C3.46103 17.8793 3.84088 17.6754 4.13707 17.3756L7.99901 12.7584L11.8611 17.3332C12.0558 17.5304 12.2877 17.6871 12.5434 17.7944Z" fill="white"/>
</svg>
