<svg width="24" height="24" viewBox="0 0 24 24" fill="none" xmlns="http://www.w3.org/2000/svg">
<path d="M18.7589 21.0042C17.9184 20.9972 17.1127 20.6682 16.5076 20.0849C15.9019 20.6654 15.0953 20.9894 14.2564 20.9894C13.4174 20.9894 12.6109 20.6654 12.0051 20.0849C11.3994 20.6654 10.5928 20.9894 9.75386 20.9894C8.9149 20.9894 8.10835 20.6654 7.50261 20.0849C6.94185 20.6391 6.19317 20.9622 5.40522 20.99C4.61728 21.0179 3.84769 20.7483 3.24925 20.235C3.17444 20.1696 3.11335 20.09 3.06953 20.0009C3.02571 19.9117 3.00003 19.8147 2.99399 19.7156C2.98794 19.6164 3.00165 19.517 3.03432 19.4232C3.06698 19.3293 3.11796 19.2429 3.18428 19.169C3.25061 19.095 3.33096 19.0349 3.42068 18.9922C3.5104 18.9496 3.6077 18.9251 3.70694 18.9204C3.80618 18.9156 3.90538 18.9306 3.99878 18.9644C4.09219 18.9983 4.17794 19.0504 4.25106 19.1176C4.44816 19.2762 4.67907 19.3873 4.92595 19.4425C5.17283 19.4976 5.42909 19.4953 5.67493 19.4357C5.92077 19.3761 6.14963 19.2608 6.34383 19.0987C6.53803 18.9366 6.69239 18.732 6.79497 18.5008C6.84704 18.3548 6.94302 18.2286 7.06972 18.1393C7.19643 18.0501 7.34765 18.0023 7.50261 18.0025C7.65785 18.0025 7.80927 18.0506 7.93601 18.1403C8.06274 18.2299 8.15856 18.3567 8.21026 18.503C8.3491 18.7948 8.5678 19.0413 8.841 19.2138C9.11421 19.3864 9.43073 19.478 9.75386 19.478C10.077 19.478 10.3935 19.3864 10.6667 19.2138C10.9399 19.0413 11.1586 18.7948 11.2975 18.503C11.3492 18.3567 11.445 18.2299 11.5717 18.1403C11.6985 18.0506 11.8499 18.0025 12.0051 18.0025C12.1603 18.0025 12.3118 18.0506 12.4385 18.1403C12.5652 18.2299 12.6611 18.3567 12.7128 18.503C12.8516 18.7948 13.0703 19.0413 13.3435 19.2138C13.6167 19.3864 13.9332 19.478 14.2564 19.478C14.5795 19.478 14.896 19.3864 15.1692 19.2138C15.4424 19.0413 15.6611 18.7948 15.8 18.503C15.8517 18.3567 15.9475 18.2299 16.0742 18.1403C16.201 18.0506 16.3524 18.0025 16.5076 18.0025C16.6628 18.0025 16.8143 18.0506 16.941 18.1403C17.0677 18.2299 17.1636 18.3567 17.2153 18.503C17.3178 18.7342 17.4721 18.9387 17.6662 19.1008C17.8603 19.2629 18.089 19.3783 18.3348 19.4379C18.5805 19.4976 18.8367 19.5 19.0835 19.445C19.3304 19.39 19.5613 19.279 19.7584 19.1206C19.9074 18.9949 20.0995 18.9322 20.294 18.9457C20.4885 18.9591 20.6701 19.0477 20.8004 19.1928C20.9307 19.3378 20.9994 19.5278 20.9921 19.7226C20.9847 19.9174 20.9018 20.1017 20.761 20.2365C20.2116 20.7313 19.4982 21.0049 18.7589 21.0042ZM18.7589 16.5017C17.9184 16.4947 17.1127 16.1657 16.5076 15.5824C15.9019 16.1629 15.0953 16.4869 14.2564 16.4869C13.4174 16.4869 12.6109 16.1629 12.0051 15.5824C11.3994 16.1629 10.5928 16.4869 9.75386 16.4869C8.9149 16.4869 8.10835 16.1629 7.50261 15.5824C6.94185 16.1366 6.19317 16.4597 5.40522 16.4875C4.61728 16.5153 3.84769 16.2458 3.24925 15.7325C3.17444 15.6671 3.11335 15.5875 3.06953 15.4984C3.02571 15.4092 3.00003 15.3122 2.99399 15.2131C2.98794 15.1139 3.00165 15.0145 3.03432 14.9207C3.06698 14.8268 3.11796 14.7404 3.18428 14.6665C3.25061 14.5925 3.33096 14.5324 3.42068 14.4897C3.5104 14.4471 3.6077 14.4226 3.70694 14.4178C3.80618 14.4131 3.90538 14.4281 3.99878 14.4619C4.09219 14.4958 4.17794 14.5479 4.25106 14.6151C4.44816 14.7737 4.67907 14.8848 4.92595 14.94C5.17283 14.9951 5.42909 14.9928 5.67493 14.9332C5.92077 14.8736 6.14963 14.7583 6.34383 14.5962C6.53803 14.4341 6.69239 14.2295 6.79497 13.9983C6.84704 13.8523 6.94302 13.7261 7.06972 13.6368C7.19643 13.5476 7.34765 13.4998 7.50261 13.5C7.65785 13.5 7.80927 13.5481 7.93601 13.6378C8.06274 13.7274 8.15856 13.8542 8.21026 14.0005C8.3491 14.2923 8.5678 14.5388 8.841 14.7113C9.11421 14.8839 9.43073 14.9755 9.75386 14.9755C10.077 14.9755 10.3935 14.8839 10.6667 14.7113C10.9399 14.5388 11.1586 14.2923 11.2975 14.0005C11.3492 13.8542 11.445 13.7274 11.5717 13.6378C11.6985 13.5481 11.8499 13.5 12.0051 13.5C12.1603 13.5 12.3118 13.5481 12.4385 13.6378C12.5652 13.7274 12.6611 13.8542 12.7128 14.0005C12.8516 14.2923 13.0703 14.5388 13.3435 14.7113C13.6167 14.8839 13.9332 14.9755 14.2564 14.9755C14.5795 14.9755 14.896 14.8839 15.1692 14.7113C15.4424 14.5388 15.6611 14.2923 15.8 14.0005C15.8517 13.8542 15.9475 13.7274 16.0742 13.6378C16.201 13.5481 16.3524 13.5 16.5076 13.5C16.6628 13.5 16.8143 13.5481 16.941 13.6378C17.0677 13.7274 17.1636 13.8542 17.2153 14.0005C17.3178 14.2317 17.4721 14.4362 17.6662 14.5983C17.8603 14.7604 18.089 14.8758 18.3348 14.9354C18.5805 14.9951 18.8367 14.9975 19.0835 14.9425C19.3304 14.8875 19.5613 14.7765 19.7584 14.6181C19.9074 14.4924 20.0995 14.4297 20.294 14.4432C20.4885 14.4566 20.6701 14.5452 20.8004 14.6903C20.9307 14.8353 20.9994 15.0253 20.9921 15.2201C20.9847 15.4149 20.9018 15.5992 20.761 15.734C20.2116 16.2288 19.4982 16.5024 18.7589 16.5017Z" fill="#D6DCE1"/>
<path d="M15.0948 4.94712L15.1354 4.9819C17.4761 6.98856 19.4966 8.72077 19.5 11.8081C19.5006 12.2471 19.4632 12.6822 19.3896 13.1091C19.1836 13.1934 18.9896 13.3085 18.8147 13.452C18.7976 13.4648 18.778 13.4738 18.7572 13.4785C18.7346 13.4835 18.7112 13.4833 18.6888 13.4778C18.6663 13.4723 18.6454 13.4618 18.6276 13.447C18.6144 13.4359 18.6031 13.4226 18.5944 13.4078C18.4331 13.0083 18.1601 12.6628 17.8072 12.4131C17.4272 12.1444 16.973 12 16.5075 12C16.1875 12 15.8729 12.0682 15.584 12.1982C15.4527 12.2573 15.3268 12.3291 15.208 12.4131C15.1306 12.4679 15.0569 12.5273 14.9875 12.5909C14.5719 11.8618 14.0689 11.1877 13.6057 10.6329C13.409 10.398 13.1639 10.2092 12.8875 10.0797C12.6111 9.95007 12.31 9.88281 12.0052 9.88256H11.9985C11.6928 9.88168 11.3905 9.94791 11.1128 10.0767C10.835 10.2054 10.5883 10.3936 10.3899 10.6281C9.81873 11.3028 9.3542 11.9538 8.99719 12.5791C8.93159 12.52 8.86233 12.4645 8.78967 12.4131C8.40966 12.1444 7.95543 12 7.48997 12C7.02451 12 6.5705 12.1444 6.19049 12.4131C5.83759 12.6628 5.56463 13.0083 5.40331 13.4078C5.39456 13.4226 5.38333 13.4359 5.37005 13.447C5.3523 13.4618 5.33139 13.4723 5.30893 13.4778C5.28646 13.4833 5.26305 13.4835 5.24048 13.4785C5.21965 13.4738 5.20005 13.4648 5.18298 13.452C5.00607 13.3069 4.80966 13.1908 4.60107 13.1063C4.53031 12.6782 4.49622 12.2426 4.50033 11.804C4.48604 10.1684 5.11473 8.59368 6.24888 7.4243C6.39743 7.2562 6.58493 7.12779 6.79466 7.05052C7.00439 6.97326 7.22982 6.94954 7.45085 6.98149C7.67188 7.01343 7.88163 7.10005 8.06139 7.23361C8.24115 7.36717 8.38534 7.54352 8.48108 7.74693C8.57432 7.94017 8.68195 8.12601 8.80305 8.30284C9.11259 6.75073 9.68266 5.26332 10.4887 3.90471C10.6395 3.66446 10.8407 3.46052 11.0782 3.3073C11.3157 3.15408 11.5837 3.05532 11.8632 3.01799C12.1516 2.97885 12.445 3.00375 12.7228 3.09094C13.0007 3.17813 13.2563 3.3255 13.4717 3.52274C14.0275 4.03249 14.5736 4.50048 15.0948 4.94712Z" fill="#D6DCE1"/>
</svg>
