<svg width="18" height="10" viewBox="0 0 18 10" fill="none" xmlns="http://www.w3.org/2000/svg">
<path fill-rule="evenodd" clip-rule="evenodd" d="M17.7955 9.26864C17.5112 9.5699 17.0365 9.58366 16.7353 9.29938L9 2.0001L1.26473 9.29938C0.963472 9.58366 0.488799 9.5699 0.204519 9.26864C-0.079761 8.96738 -0.0659966 8.4927 0.235263 8.20842L7.97053 0.909145C8.54849 0.363758 9.4515 0.363758 10.0295 0.909145L17.7647 8.20842C18.066 8.4927 18.0798 8.96738 17.7955 9.26864Z" fill="#CABAFF"/>
<path fill-rule="evenodd" clip-rule="evenodd" d="M17.7955 9.26864C17.5112 9.5699 17.0365 9.58366 16.7353 9.29938L9 2.0001L1.26473 9.29938C0.963472 9.58366 0.488799 9.5699 0.204519 9.26864C-0.079761 8.96738 -0.0659966 8.4927 0.235263 8.20842L7.97053 0.909145C8.54849 0.363758 9.4515 0.363758 10.0295 0.909145L17.7647 8.20842C18.066 8.4927 18.0798 8.96738 17.7955 9.26864Z" fill="black" fill-opacity="0.2"/>
</svg>
