<svg width="18" height="18" viewBox="0 0 18 18" fill="none" xmlns="http://www.w3.org/2000/svg">
<path d="M14.503 10.9999C13.9366 11.0003 13.3788 11.1388 12.8778 11.4032C12.3767 11.6677 11.9475 12.0502 11.6271 12.5178L6.75091 10.3136C7.09725 9.47642 7.09859 8.53601 6.75466 7.69778L11.6241 5.4824C12.0989 6.16993 12.8042 6.66431 13.612 6.87586C14.4198 7.08741 15.2765 7.00212 16.0269 6.63547C16.7772 6.26881 17.3714 5.64506 17.7017 4.87738C18.032 4.1097 18.0766 3.24892 17.8272 2.45119C17.5779 1.65346 17.0512 0.971607 16.3427 0.529324C15.6342 0.0870416 14.7908 -0.0863805 13.9655 0.0405156C13.1403 0.167412 12.3877 0.586221 11.8445 1.22097C11.3012 1.85573 11.0032 2.66438 11.0045 3.50025C11.0077 3.69809 11.0278 3.8953 11.0645 4.08972L5.8879 6.4446C5.39073 5.97829 4.76832 5.66752 4.09714 5.55047C3.42596 5.43342 2.73524 5.51519 2.10984 5.78573C1.48445 6.05627 0.95161 6.5038 0.576793 7.07334C0.201976 7.64288 0.00150534 8.30962 8.44444e-06 8.99165C-0.00148845 9.67369 0.196054 10.3413 0.568367 10.9125C0.94068 11.4837 1.47155 11.9335 2.09575 12.2068C2.71995 12.4801 3.4103 12.5649 4.08199 12.4508C4.75368 12.3367 5.37745 12.0287 5.87666 11.5646L11.0667 13.9105C11.0307 14.1047 11.0109 14.3016 11.0075 14.4992C11.0074 15.1915 11.2123 15.8683 11.5964 16.444C11.9805 17.0197 12.5266 17.4684 13.1655 17.7334C13.8043 17.9984 14.5074 18.0678 15.1857 17.9328C15.8639 17.7978 16.487 17.4644 16.976 16.9749C17.465 16.4853 17.798 15.8616 17.9329 15.1826C18.0677 14.5036 17.9984 13.7998 17.7337 13.1602C17.469 12.5206 17.0208 11.974 16.4457 11.5894C15.8706 11.2049 15.1946 10.9997 14.503 10.9999ZM14.503 1.50011C14.8982 1.49996 15.2846 1.61714 15.6132 1.83683C15.9419 2.05652 16.1981 2.36885 16.3494 2.73431C16.5008 3.09978 16.5404 3.50196 16.4634 3.89C16.3864 4.27804 16.1962 4.6345 15.9168 4.9143C15.6374 5.19411 15.2814 5.38468 14.8938 5.46191C14.5062 5.53915 14.1045 5.49958 13.7394 5.34822C13.3742 5.19685 13.0621 4.94049 12.8426 4.61155C12.623 4.28261 12.5058 3.89588 12.5058 3.50025C12.5062 2.97003 12.7167 2.46163 13.0912 2.08664C13.4656 1.71165 13.9734 1.5007 14.503 1.50011ZM3.51612 10.9999C3.12093 11 2.73457 10.8828 2.40591 10.6631C2.07725 10.4435 1.82105 10.1311 1.66972 9.76566C1.51838 9.40019 1.47871 8.99801 1.55572 8.60997C1.63272 8.22193 1.82295 7.86547 2.10234 7.58567C2.38173 7.30586 2.73773 7.1153 3.12532 7.03806C3.5129 6.96082 3.91466 7.00039 4.27979 7.15175C4.64491 7.30312 4.95699 7.55948 5.17656 7.88842C5.39613 8.21736 5.51333 8.60409 5.51333 8.99972C5.51274 9.52988 5.30215 10.0382 4.92775 10.4131C4.55335 10.7881 4.0457 10.9991 3.51612 10.9999ZM14.503 16.4993C14.1079 16.4993 13.7216 16.382 13.393 16.1622C13.0644 15.9425 12.8084 15.6301 12.6571 15.2646C12.5059 14.8991 12.4664 14.497 12.5434 14.109C12.6205 13.721 12.8108 13.3646 13.0902 13.0849C13.3697 12.8051 13.7257 12.6146 14.1132 12.5375C14.5008 12.4603 14.9025 12.4999 15.2676 12.6513C15.6327 12.8027 15.9447 13.059 16.1643 13.388C16.3838 13.7169 16.501 14.1036 16.501 14.4992C16.5006 15.0295 16.2899 15.538 15.9153 15.9131C15.5407 16.2881 15.0328 16.4989 14.503 16.4993Z" fill="#CABAFF"/>
</svg>
