<svg width="24" height="24" viewBox="0 0 24 24" fill="none" xmlns="http://www.w3.org/2000/svg">
<g clip-path="url(#clip0_5539_13560)">
<path d="M11.915 1.67086e-07C6.90516 9.73521e-08 5.43998 0.00516978 5.15526 0.0288027C4.12746 0.114287 3.4883 0.27621 2.79261 0.623319C2.25647 0.890112 1.83401 1.19937 1.41754 1.63289C0.659069 2.42348 0.201221 3.39613 0.0384586 4.55229C-0.0406776 5.11358 -0.0638798 5.22805 -0.0580579 8.09502C-0.0563633 9.05067 -0.0498582 10.3084 -0.0436085 11.9954C-0.0250587 17.0026 -0.0140972 18.4667 0.0109516 18.7511C0.0977202 19.7518 0.256946 20.3814 0.591743 21.0701C1.23158 22.3883 2.44795 23.378 3.87797 23.7472C4.37312 23.8746 4.91973 23.9448 5.62126 23.978C5.91849 23.9909 8.94749 24.0002 11.9783 24.0002C15.0091 24.0002 18.0399 23.9965 18.3297 23.9817C19.1417 23.9435 19.613 23.8802 20.134 23.7454C21.5705 23.3743 22.7574 22.3994 23.4003 21.0627C23.7236 20.3906 23.8864 19.737 23.9577 18.7886C23.9731 18.5818 23.9678 15.2848 23.9556 11.9922C23.9434 8.69913 23.9238 5.40825 23.9068 5.20146C23.8275 4.23768 23.6599 3.58962 23.3211 2.90464C23.0431 2.34391 22.7351 1.92516 22.2887 1.497C21.492 0.738529 20.5194 0.276949 19.3618 0.110041C18.8009 0.0289875 18.6892 0.00498533 15.8208 2.21451e-07L11.915 1.67086e-07Z" fill="url(#paint0_radial_5539_13560)"/>
<path d="M11.915 1.67086e-07C6.90516 9.73521e-08 5.43998 0.00516978 5.15526 0.0288027C4.12746 0.114287 3.4883 0.27621 2.79261 0.623319C2.25647 0.890112 1.83401 1.19937 1.41754 1.63289C0.659069 2.42348 0.201221 3.39613 0.0384586 4.55229C-0.0406776 5.11358 -0.0638798 5.22805 -0.0580579 8.09502C-0.0563633 9.05067 -0.0498582 10.3084 -0.0436085 11.9954C-0.0250587 17.0026 -0.0140972 18.4667 0.0109516 18.7511C0.0977202 19.7518 0.256946 20.3814 0.591743 21.0701C1.23158 22.3883 2.44795 23.378 3.87797 23.7472C4.37312 23.8746 4.91973 23.9448 5.62126 23.978C5.91849 23.9909 8.94749 24.0002 11.9783 24.0002C15.0091 24.0002 18.0399 23.9965 18.3297 23.9817C19.1417 23.9435 19.613 23.8802 20.134 23.7454C21.5705 23.3743 22.7574 22.3994 23.4003 21.0627C23.7236 20.3906 23.8864 19.737 23.9577 18.7886C23.9731 18.5818 23.9678 15.2848 23.9556 11.9922C23.9434 8.69913 23.9238 5.40825 23.9068 5.20146C23.8275 4.23768 23.6599 3.58962 23.3211 2.90464C23.0431 2.34391 22.7351 1.92516 22.2887 1.497C21.492 0.738529 20.5194 0.276949 19.3618 0.110041C18.8009 0.0289875 18.6892 0.00498533 15.8208 2.21451e-07L11.915 1.67086e-07Z" fill="url(#paint1_radial_5539_13560)"/>
<path d="M11.9237 3.27344C9.55355 3.27344 9.25614 3.2838 8.32542 3.32616C7.39651 3.36871 6.76289 3.5158 6.2088 3.73161C5.63565 3.95451 5.14986 4.25269 4.66658 4.73795C4.18293 5.22303 3.88656 5.70993 3.66506 6.28373C3.45076 6.83881 3.30584 7.47316 3.26747 8.40186C3.22928 9.33275 3.21947 9.63038 3.22825 12.0005C3.23703 14.3706 3.24868 14.6672 3.29431 15.5981C3.34047 16.5271 3.48991 17.1613 3.7076 17.7162C3.93281 18.2902 4.23278 18.7771 4.71984 19.2622C5.20653 19.7476 5.69453 20.0465 6.26898 20.2694C6.82503 20.4852 7.45992 20.6323 8.38896 20.6748C9.32 20.7172 9.6173 20.7276 11.9872 20.7276C14.3575 20.7276 14.654 20.7172 15.5847 20.6748C16.5136 20.6323 17.148 20.4852 17.7024 20.2694C18.2754 20.0465 18.7605 19.7476 19.2436 19.2622C19.7272 18.7771 20.0236 18.2902 20.2451 17.7164C20.4576 17.1613 20.6025 16.5269 20.6427 15.5982C20.6811 14.6674 20.6909 14.3706 20.6821 12.0005C20.6733 9.63038 20.6613 9.33293 20.616 8.40204C20.569 7.47297 20.4193 6.83881 20.2027 6.28391C19.977 5.70993 19.677 5.22303 19.1898 4.73795C18.7025 4.25251 18.216 3.95433 17.6406 3.73161C17.0835 3.5158 16.4484 3.36871 15.5192 3.32616C14.5882 3.2838 14.2918 3.27344 11.9209 3.27344L11.9237 3.27344ZM11.1466 4.84613C11.379 4.84576 11.6382 4.84613 11.9295 4.84613C14.2596 4.84613 14.5358 4.85449 15.4561 4.89631C16.3071 4.93522 16.7695 5.0774 17.0775 5.19685C17.4854 5.35503 17.7764 5.54411 18.0828 5.84956C18.3894 6.15501 18.5796 6.44591 18.7396 6.85317C18.8602 7.16044 19.0043 7.62224 19.0462 8.47313C19.0914 9.39311 19.1015 9.66947 19.1101 11.9985C19.1188 14.3275 19.1107 14.6039 19.0723 15.5239C19.0365 16.3748 18.8961 16.8366 18.7777 17.1438C18.6211 17.5511 18.4327 17.8411 18.1284 18.1464C17.8241 18.4518 17.5348 18.6409 17.1279 18.7991C16.8211 18.9191 16.3595 19.0609 15.5087 19.0998C14.5889 19.1416 14.3126 19.1507 11.9825 19.1507C9.65218 19.1507 9.37598 19.1416 8.45585 19.0998C7.60482 19.0605 7.14249 18.9183 6.83424 18.7989C6.42639 18.6407 6.13479 18.4516 5.82822 18.1462C5.52164 17.8407 5.33148 17.5506 5.17143 17.1431C5.05084 16.8358 4.90677 16.374 4.86489 15.5231C4.81967 14.6032 4.81028 14.3268 4.80164 11.9963C4.79301 9.66583 4.80036 9.39093 4.83877 8.47095C4.87452 7.62006 5.01499 7.15825 5.1333 6.85063C5.28997 6.44336 5.47834 6.15246 5.78265 5.84701C6.08697 5.54157 6.37717 5.35248 6.78384 5.19394C7.09102 5.07394 7.55248 4.93213 8.40322 4.89304C9.20815 4.85667 9.5201 4.84576 11.1466 4.84395L11.1466 4.84613ZM16.5933 6.29518C16.0151 6.29518 15.5478 6.76372 15.5499 7.34207C15.552 7.92024 16.0229 8.38932 16.601 8.38932C17.1792 8.38932 17.6465 7.92024 17.6444 7.34207C17.6422 6.7639 17.1714 6.29482 16.5933 6.29482L16.5933 6.29518ZM11.9394 7.51879C9.46437 7.51879 7.46514 9.52547 7.47431 12.0005C7.48348 14.4755 9.49757 16.4813 11.9726 16.4813C14.4476 16.4813 16.4461 14.4755 16.4369 12.0005C16.4278 9.52547 14.4144 7.51879 11.9394 7.51879ZM11.9452 9.09148C13.5517 9.09148 14.859 10.3938 14.865 12.0005C14.8709 13.607 13.5733 14.9095 11.9668 14.9095C10.3601 14.9095 9.05294 13.607 9.04699 12.0005C9.04103 10.3938 10.3385 9.09148 11.9452 9.09148Z" fill="white"/>
</g>
<defs>
<radialGradient id="paint0_radial_5539_13560" cx="0" cy="0" r="1" gradientUnits="userSpaceOnUse" gradientTransform="translate(6.38192 25.8487) rotate(-90.2123) scale(23.7861 22.1225)">
<stop stop-color="#FFDD55"/>
<stop offset="0.1" stop-color="#FFDD55"/>
<stop offset="0.5" stop-color="#FF543E"/>
<stop offset="1" stop-color="#C837AB"/>
</radialGradient>
<radialGradient id="paint1_radial_5539_13560" cx="0" cy="0" r="1" gradientUnits="userSpaceOnUse" gradientTransform="translate(-4.10259 1.72893) rotate(78.4768) scale(10.6401 43.7955)">
<stop stop-color="#3771C8"/>
<stop offset="0.128" stop-color="#3771C8"/>
<stop offset="1" stop-color="#6600FF" stop-opacity="0"/>
</radialGradient>
<clipPath id="clip0_5539_13560">
<rect width="24" height="24" fill="white"/>
</clipPath>
</defs>
</svg>
