<svg width="24" height="24" viewBox="0 0 24 24" fill="none" xmlns="http://www.w3.org/2000/svg">
<g clip-path="url(#clip0_3849_5068)">
<path d="M3.82763 5.4515e-08L19.9954 2.79559e-07C21.0339 2.94015e-07 22.0314 0.412554 22.7685 1.1469C23.5056 1.88126 23.9218 2.87725 23.9256 3.91578L23.9855 20.0836C23.9894 21.1224 23.5804 22.1185 22.8487 22.853C22.1169 23.5875 21.1223 24.0002 20.0835 24.0002L3.91579 24.0002C2.87727 24.0002 1.87976 23.5876 1.14269 22.8533C0.405626 22.1189 -0.0106149 21.1229 -0.0144622 20.0844L-0.074358 3.91653C-0.078206 2.8778 0.330734 1.88162 1.0625 1.14712C1.79426 0.412633 2.78891 4.00567e-08 3.82763 5.4515e-08Z" fill="#005FF9"/>
<path d="M14.3012 12.0001C14.3029 12.4464 14.1721 12.8828 13.9255 13.2539C13.6789 13.625 13.3276 13.9143 12.9158 14.0851C12.5041 14.2559 12.0505 14.3006 11.6124 14.2135C11.1743 14.1264 10.7714 13.9115 10.4546 13.5959C10.1378 13.2802 9.92142 12.8781 9.83272 12.4404C9.74403 12.0026 9.78704 11.5488 9.95632 11.1365C10.1256 10.7241 10.4135 10.3716 10.7837 10.1237C11.1539 9.87567 11.5898 9.74332 12.0361 9.74332C12.6344 9.74411 13.2088 9.98213 13.6335 10.4052C14.0581 10.8282 14.2982 11.4018 14.3012 12.0001ZM12.0167 4.50003C10.8432 4.50121 9.68745 4.77773 8.64226 5.30735C7.59707 5.83697 6.69165 6.60491 5.9988 7.54944C5.30595 8.49396 4.845 9.58871 4.65302 10.7456C4.46104 11.9026 4.54338 13.0894 4.89342 14.2108C5.24346 15.3321 5.85144 16.3566 6.66846 17.202C7.48549 18.0473 8.48877 18.6899 9.59762 19.078C10.7065 19.4661 11.89 19.589 13.053 19.4367C14.2159 19.2844 15.3259 18.8612 16.2937 18.2011L16.3154 18.1861L15.3 17.0109L15.2836 17.0221C14.1235 17.769 12.7387 18.0892 11.3654 17.9284C9.99218 17.7675 8.7155 17.1354 7.75313 16.1399C6.79076 15.1444 6.20231 13.8471 6.08813 12.4694C5.97395 11.0916 6.34111 9.71872 7.12701 8.58477C7.9129 7.45082 9.06885 6.62608 10.3977 6.25121C11.7266 5.87634 13.146 5.97455 14.414 6.5291C15.682 7.08364 16.7199 8.06018 17.3508 9.29216C17.9818 10.5241 18.1666 11.9353 17.8737 13.2848C17.8412 13.5606 17.707 13.8139 17.4972 13.9952C17.2875 14.1765 17.0173 14.2727 16.7396 14.2651C16.6125 14.2564 16.4883 14.2225 16.3742 14.1654C16.2601 14.1083 16.1584 14.0291 16.0751 13.9324C15.9917 13.8357 15.9284 13.7235 15.8887 13.6023C15.849 13.4811 15.8339 13.3533 15.844 13.2263L15.8395 12.0001C15.8376 11.12 15.5305 10.2667 14.9704 9.58578C14.4103 8.90486 13.632 8.43853 12.7683 8.26635C11.9046 8.09417 11.009 8.22682 10.2344 8.64166C9.45974 9.0565 8.85406 9.72783 8.52069 10.5411C8.18732 11.3543 8.14691 12.2591 8.40637 13.101C8.66583 13.943 9.20907 14.6698 9.94339 15.1576C10.6777 15.6455 11.5576 15.864 12.4329 15.7759C13.3083 15.6878 14.1248 15.2985 14.7431 14.6746C14.948 14.9945 15.2246 15.2623 15.5509 15.4569C15.8771 15.6514 16.244 15.7672 16.6223 15.7951C16.6891 15.8011 16.7573 15.8034 16.8248 15.8034C17.3747 15.8021 17.9084 15.6217 18.3454 15.2896C18.8083 14.9273 19.146 14.4291 19.3114 13.8646C19.3403 13.7686 19.3942 13.5488 19.395 13.5481L19.3949 13.5398C19.5048 13.0344 19.555 12.5176 19.5445 12.0001C19.5339 10.0119 18.7357 8.1061 17.3246 6.70025C15.9136 5.29441 14.0049 4.5032 12.0167 4.50003Z" fill="#FF9E00"/>
</g>
<defs>
<clipPath id="clip0_3849_5068">
<rect width="24" height="24" fill="white"/>
</clipPath>
</defs>
</svg>
