<svg width="24" height="24" viewBox="0 0 24 24" fill="none" xmlns="http://www.w3.org/2000/svg">
<g clip-path="url(#clip0_5539_13579)">
<path d="M3.82763 5.4515e-08L19.9954 2.79559e-07C21.0339 2.94015e-07 22.0314 0.412554 22.7685 1.1469C23.5056 1.88126 23.9218 2.87725 23.9256 3.91578L23.9855 20.0836C23.9894 21.1224 23.5804 22.1185 22.8487 22.853C22.1169 23.5875 21.1223 24.0002 20.0835 24.0002L3.91579 24.0002C2.87727 24.0002 1.87976 23.5876 1.14269 22.8533C0.405626 22.1189 -0.0106149 21.1229 -0.0144622 20.0844L-0.074358 3.91653C-0.078206 2.8778 0.330734 1.88162 1.0625 1.14712C1.79426 0.412633 2.78891 4.00567e-08 3.82763 5.4515e-08Z" fill="#005FF9"/>
<path d="M8.44897 9.3328C9.40247 9.3328 10.1726 8.55984 10.169 7.60634C10.1655 6.65284 9.38968 5.87988 8.43618 5.87988C7.48269 5.87988 6.7126 6.65284 6.71613 7.60634C6.71966 8.55984 7.49548 9.3328 8.44897 9.3328Z" fill="white"/>
<path d="M15.4601 9.3328C16.4136 9.3328 17.1837 8.55984 17.1802 7.60634C17.1767 6.65284 16.4008 5.87988 15.4474 5.87988C14.4939 5.87988 13.7238 6.65284 13.7273 7.60634C13.7308 8.55984 14.5067 9.3328 15.4601 9.3328Z" fill="white"/>
<path d="M20.8507 16.0279L18.7463 12.4453C18.4853 12.0076 17.9254 11.8536 17.4806 12.113C17.0439 12.3723 16.8919 12.9316 17.1529 13.3693L17.4628 13.8881C15.9361 15.2822 13.9855 16.0441 11.8862 16.0441C9.85176 16.0441 7.93618 15.3146 6.41557 13.9934L6.77798 13.3612C7.03573 12.9235 6.87962 12.3561 6.441 12.1049C6.00235 11.8455 5.43554 11.9995 5.17779 12.4372L3.09987 16.0198C2.84212 16.4575 2.99822 17.0249 3.43684 17.2761C3.58304 17.3572 3.7453 17.3977 3.8993 17.3977C4.21541 17.3977 4.52282 17.2356 4.69195 16.9438L5.35239 15.809C7.20597 17.3086 9.48659 18.1191 11.8939 18.1191C14.3255 18.1191 16.681 17.2518 18.5314 15.7118L19.2655 16.9519C19.4368 17.2437 19.7454 17.4058 20.0615 17.4058C20.2155 17.4058 20.3775 17.3653 20.5231 17.2842C20.9598 17.0249 21.1036 16.4656 20.8507 16.0279Z" fill="white"/>
</g>
<defs>
<clipPath id="clip0_5539_13579">
<rect width="24" height="24" fill="white"/>
</clipPath>
</defs>
</svg>
