<svg width="24" height="24" viewBox="0 0 24 24" fill="none" xmlns="http://www.w3.org/2000/svg">
<g clip-path="url(#clip0_3849_2534)">
<path d="M23.9868 20.4881C23.9939 22.4278 22.4353 24.0002 20.5056 24.0002L3.49382 24.0002C1.56406 24.0002 -0.00608747 22.4278 -0.0132467 20.4881L-0.0759044 3.51205C-0.0830636 1.57238 1.47554 2.18561e-08 3.40523 4.88157e-08L20.417 2.86485e-07C22.3467 3.13445e-07 23.9169 1.57244 23.9241 3.51205L23.9868 20.4881Z" fill="#F7931E"/>
<path d="M12.1405 3.75003C9.77068 3.75003 7.85677 5.68817 7.8656 8.07892C7.87442 10.4697 9.80264 12.408 12.1724 12.408C14.5423 12.408 16.4562 10.4697 16.4473 8.07892C16.4385 5.68817 14.5103 3.75003 12.1405 3.75003ZM12.1631 9.8685C11.1835 9.8685 10.3864 9.06725 10.3827 8.07898C10.3791 7.0907 11.1703 6.28951 12.1499 6.28951C13.1295 6.28951 13.9266 7.0907 13.9302 8.07898C13.9339 9.06725 13.1427 9.8685 12.1631 9.8685Z" fill="white"/>
<path d="M13.6999 15.8525C15.4164 15.4994 16.4428 14.6787 16.4971 14.6347C16.9983 14.228 17.0763 13.4872 16.6713 12.98C16.2664 12.4729 15.5318 12.3914 15.0306 12.7981C15.02 12.8067 13.9252 13.6564 12.1187 13.6577C10.3123 13.6564 9.18801 12.8067 9.17735 12.7981C8.67307 12.3914 7.93914 12.4729 7.53795 12.98C7.1367 13.4872 7.22018 14.228 7.72435 14.6347C7.77971 14.6793 8.85471 15.5214 10.6219 15.8662L8.17033 18.4611C7.72478 18.9291 7.74098 19.6742 8.2065 20.1254C8.43372 20.3456 8.72592 20.4551 9.01747 20.4551C9.32314 20.4551 9.62807 20.3346 9.8561 20.0951L12.1335 17.6379L14.6599 20.111C15.1178 20.5704 15.8563 20.5697 16.3099 20.1097C16.7635 19.6496 16.7602 18.9044 16.3025 18.4451L13.6999 15.8525Z" fill="white"/>
</g>
<defs>
<clipPath id="clip0_3849_2534">
<rect width="24" height="24" fill="white"/>
</clipPath>
</defs>
</svg>
