<svg width="24" height="24" viewBox="0 0 24 24" fill="none" xmlns="http://www.w3.org/2000/svg">
<g clip-path="url(#clip0_5539_13585)">
<path d="M23.9556 12.0001C23.9802 18.6301 18.63 24.0002 12 24.0002C5.37004 24.0002 -0.0198497 18.6301 -0.0444115 12.0001C-0.0689733 5.37004 5.28113 7.47468e-08 11.9111 1.67032e-07C18.5411 2.59317e-07 23.931 5.37004 23.9556 12.0001Z" fill="url(#paint0_linear_5539_13585)"/>
<path d="M9.77603 17.4999C9.38603 17.4999 9.45547 17.3499 9.3141 16.9799L8.16017 13.2198L15.2238 8.7998L16.0546 9.01981L15.3716 10.8998L9.77603 17.4999Z" fill="#C8DAEA"/>
<path d="M9.77594 17.5002C10.0759 17.5002 10.2054 17.3602 10.3748 17.2002C10.6339 16.9502 13.9619 13.7002 13.9619 13.7002L11.91 13.2002L10.0145 14.4002L9.77557 17.4002L9.77594 17.5002Z" fill="#A9C9DD"/>
<path d="M9.96469 14.4401L14.8179 18.0101C15.369 18.3101 15.7685 18.1601 15.906 17.5001L17.8416 8.22005C18.0386 7.41005 17.5273 7.05004 16.9982 7.29005L5.45472 11.7501C4.66591 12.0701 4.67754 12.5101 5.31824 12.7001L8.29169 13.6301L15.1456 9.30006C15.4649 9.10006 15.7653 9.21006 15.5261 9.43006L9.96469 14.4401Z" fill="url(#paint1_linear_5539_13585)"/>
</g>
<defs>
<linearGradient id="paint0_linear_5539_13585" x1="15.4422" y1="3.79303" x2="9.45818" y2="17.7776" gradientUnits="userSpaceOnUse">
<stop stop-color="#37AEE2"/>
<stop offset="1" stop-color="#1E96C8"/>
</linearGradient>
<linearGradient id="paint1_linear_5539_13585" x1="12.8561" y1="12.3756" x2="15.3645" y2="16.3796" gradientUnits="userSpaceOnUse">
<stop stop-color="#EFF7FC"/>
<stop offset="1" stop-color="white"/>
</linearGradient>
<clipPath id="clip0_5539_13585">
<rect width="24" height="24" fill="white"/>
</clipPath>
</defs>
</svg>
