<svg width="24" height="24" viewBox="0 0 24 24" fill="none" xmlns="http://www.w3.org/2000/svg">
<path d="M19.651 3.55737C19.1548 3.09929 17.0149 1.73187 12.5605 1.71206C12.5605 1.71206 7.28495 1.35878 4.73316 3.72303C3.31301 5.15743 2.84076 7.29048 2.79698 9.89386C2.75321 12.4972 2.49947 17.4692 7.17487 18.792C7.17487 18.792 7.17043 22.4837 7.16915 22.8081C7.16998 23.035 7.20588 23.1902 7.33317 23.2223C7.42511 23.245 7.56164 23.1967 7.67814 23.0782C8.42178 22.3137 10.8019 19.3732 10.8019 19.3732C14.011 19.5868 16.5607 18.9411 16.8348 18.8496C17.4798 18.6386 20.9774 18.3306 21.5533 13.4538C22.1506 8.42417 21.2997 4.99177 19.651 3.55737Z" fill="white"/>
<path d="M20.8091 2.34079C20.222 1.79051 17.8515 0.0409945 12.5856 0.0172258C12.5856 0.0172258 6.37452 -0.364512 3.35782 2.46611C1.67908 4.18429 1.09558 6.69836 1.04455 9.81529C0.993525 12.9322 0.934184 18.7735 6.46336 20.3574L6.46865 20.3574L6.47404 22.7742C6.47404 22.7742 6.44233 23.7527 7.07506 23.9522C7.84042 24.1942 8.28632 23.4505 9.01321 22.6489C9.41219 22.2088 9.96302 21.5624 10.3781 21.0683C14.1567 21.3924 17.0593 20.6516 17.3888 20.5421C18.1506 20.29 22.4644 19.7261 23.1448 13.8855C23.8471 7.86519 22.758 4.05717 20.8091 2.34079ZM21.4902 13.4537C20.9158 18.3306 17.4164 18.637 16.7718 18.8481C16.4976 18.9381 13.9483 19.5853 10.7388 19.3717C10.7388 19.3717 8.35878 22.3122 7.6148 23.0767C7.49866 23.1963 7.36177 23.2446 7.27019 23.2208C7.14148 23.1887 7.10558 23.0335 7.10615 22.8066C7.10708 22.4825 7.11182 18.7905 7.11182 18.7905C2.43464 17.4681 2.68866 12.4965 2.73204 9.89308C2.77542 7.2897 3.24729 5.15701 4.66707 3.72261C7.21882 1.35835 12.4948 1.71164 12.4948 1.71164C16.9492 1.73145 19.0887 3.09886 19.5853 3.55695C21.234 4.99135 22.0839 8.42375 21.4902 13.4522L21.4902 13.4537Z" fill="#7360F2"/>
<path d="M14.7901 9.98275C14.7137 9.98276 14.6402 9.95285 14.5847 9.89923C14.5292 9.8456 14.496 9.77236 14.4919 9.69465C14.4376 8.66432 13.9595 8.15977 12.9875 8.10647C12.91 8.1002 12.8379 8.06333 12.7866 8.00373C12.7352 7.94413 12.7087 7.86652 12.7126 7.78745C12.7165 7.70838 12.7505 7.63411 12.8075 7.58048C12.8644 7.52685 12.9398 7.49811 13.0174 7.50038C14.3 7.5724 15.0157 8.31895 15.0863 9.6644C15.0884 9.70422 15.0828 9.74404 15.0698 9.78159C15.0568 9.81914 15.0367 9.85369 15.0105 9.88325C14.9844 9.91281 14.9528 9.93681 14.9175 9.95389C14.8822 9.97096 14.844 9.98077 14.8049 9.98275L14.7901 9.98275Z" fill="#7360F2"/>
<path d="M16.3202 10.5049L16.3132 10.5049C16.2342 10.5031 16.1591 10.4693 16.1044 10.4111C16.0497 10.3529 16.0198 10.275 16.0213 10.1945C16.0404 9.15697 15.7466 8.31679 15.123 7.62606C14.4994 6.93533 13.6519 6.56079 12.5236 6.47652C12.4447 6.47065 12.3712 6.43307 12.3193 6.37205C12.2674 6.31103 12.2413 6.23157 12.2467 6.15115C12.2522 6.07072 12.2888 5.99593 12.3484 5.94322C12.4081 5.8905 12.4859 5.86419 12.5649 5.87006C13.8345 5.96478 14.8423 6.41746 15.5606 7.21515C16.2789 8.01284 16.6384 9.02193 16.6166 10.2071C16.6153 10.2865 16.5836 10.3622 16.5282 10.4178C16.4728 10.4735 16.3982 10.5048 16.3202 10.5049Z" fill="#7360F2"/>
<path d="M17.8864 11.128C17.8079 11.1279 17.7324 11.0962 17.6764 11.0397C17.6204 10.9833 17.5885 10.9067 17.5875 10.8265C17.5669 8.97079 17.0374 7.55331 15.9688 6.49381C14.9129 5.44943 13.5819 4.91356 12.0123 4.90203C11.9732 4.90189 11.9345 4.8939 11.8983 4.87851C11.8622 4.86312 11.8294 4.84064 11.8017 4.81235C11.7458 4.75521 11.7145 4.67788 11.7144 4.59736C11.7144 4.51685 11.7458 4.43974 11.8016 4.38301C11.8575 4.32628 11.9332 4.29457 12.0122 4.29485L12.0147 4.29485C13.7429 4.30782 15.2126 4.90131 16.383 6.05949C17.5534 7.21767 18.1606 8.82313 18.1835 10.8229C18.1843 10.9034 18.1538 10.9808 18.0987 11.0381C18.0435 11.0954 17.9682 11.128 17.8893 11.1287L17.8864 11.128Z" fill="#7360F2"/>
<path d="M13.0832 13.7454C13.0832 13.7454 13.502 13.7814 13.7263 13.4983L14.1637 12.9347C14.3746 12.6553 14.8855 12.477 15.3875 12.7615C15.7636 12.9798 16.129 13.217 16.482 13.4724C16.8154 13.7216 17.4983 14.3007 17.5004 14.3007C17.8257 14.5798 17.9021 14.9896 17.6829 15.4218C17.6829 15.4243 17.6812 15.4286 17.6812 15.4308C17.4396 15.8606 17.1323 16.2481 16.7708 16.5789C16.7666 16.5811 16.7666 16.5832 16.7627 16.5854C16.4486 16.8538 16.1396 17.0064 15.8357 17.0431C15.7909 17.0511 15.7454 17.054 15.7 17.0518C15.566 17.0531 15.4325 17.0322 15.3049 16.9898L15.2949 16.975C14.826 16.8404 14.0426 16.5033 12.7374 15.7708C11.9821 15.3519 11.2628 14.8686 10.587 14.3263C10.2483 14.0546 9.92515 13.7634 9.61905 13.454L9.52118 13.3547C9.51019 13.3438 9.49955 13.3327 9.48856 13.3215C9.18398 13.0106 8.8971 12.6823 8.62931 12.338C8.09483 11.6513 7.61812 10.9199 7.20429 10.1517C6.48085 8.82349 6.14725 8.02688 6.01336 7.54863L5.99884 7.53855C5.95695 7.40857 5.93604 7.27258 5.93695 7.13592C5.9343 7.08966 5.93686 7.04326 5.94456 6.99763C5.98134 6.68816 6.13007 6.37233 6.39077 6.05013C6.39288 6.04617 6.395 6.04617 6.3971 6.04185C6.72014 5.67211 7.09916 5.35748 7.51988 5.10983C7.52199 5.10983 7.52623 5.10767 7.5287 5.10767C7.95179 4.88259 8.35409 4.95894 8.62873 5.28773C8.63086 5.28989 9.20041 5.98387 9.44506 6.32275C9.69694 6.68206 9.93105 7.05394 10.1465 7.43699C10.4275 7.9473 10.2545 8.46985 9.98121 8.6852L9.43 9.13321C9.15177 9.36297 9.19008 9.78972 9.19008 9.78972C9.19008 9.78972 10.0206 12.9491 13.0832 13.7454Z" fill="#7360F2"/>
</svg>
