<svg width="24" height="24" viewBox="0 0 24 24" fill="none" xmlns="http://www.w3.org/2000/svg">
<g clip-path="url(#clip0_3819_4647)">
<path d="M-0.0462202 11.5201C-0.0663386 6.08944 -0.0763978 3.37415 1.60442 1.68708C3.28523 4.69656e-08 6.0005 8.47603e-08 11.4311 1.60351e-07L12.3911 1.73713e-07C17.8217 2.49303e-07 20.537 2.87098e-07 22.2303 1.68708C23.9236 3.37415 23.9337 6.08944 23.9538 11.5201L23.9573 12.4801C23.9775 17.9107 23.9875 20.626 22.3067 22.3131C20.6259 24.0002 17.9106 24.0002 12.48 24.0002L11.52 24.0002C6.08941 24.0002 3.37414 24.0002 1.68083 22.3131C-0.0124863 20.626 -0.0225453 17.9107 -0.0426638 12.4801L-0.0462202 11.5201Z" fill="#0077FF"/>
<path d="M12.8341 17.2902C7.36408 17.2902 4.23023 13.5402 4.07712 7.30011L6.81712 7.30011C6.92409 11.8801 8.95122 13.8202 10.5527 14.2202L10.5271 7.30011L13.1072 7.30011L13.1218 11.2501C14.7012 11.0801 16.3543 9.28012 16.907 7.30011L19.487 7.30011C19.0661 9.74013 17.2727 11.5401 15.9955 12.2801C17.2777 12.8801 19.3336 14.4502 20.1241 17.2902L17.284 17.2902C16.667 15.3902 15.1417 13.9202 13.131 13.7202L13.1442 17.2902L12.8341 17.2902Z" fill="white"/>
</g>
<defs>
<clipPath id="clip0_3819_4647">
<rect width="24" height="24" fill="white"/>
</clipPath>
</defs>
</svg>
