<svg width="24" height="24" viewBox="0 0 24 24" fill="none" xmlns="http://www.w3.org/2000/svg">
<g clip-path="url(#clip0_5539_13593)">
<path d="M-7.9131e-05 24L1.66624 17.8375C0.616009 16.0297 0.0602757 13.979 0.0550654 11.892C0.033524 5.33466 5.3542 7.5766e-08 11.9168 1.67114e-07C15.1014 0.00161707 18.0952 1.23997 20.3515 3.48789C22.6079 5.7358 23.8559 8.72376 23.8665 11.9015C23.8879 18.4584 18.5664 23.794 12.0048 23.794L11.9996 23.794C10.0072 23.7932 8.0476 23.2937 6.3051 22.3463L-7.9131e-05 24Z" fill="white"/>
<path d="M11.8835 2.00882C6.44525 2.00882 2.03904 6.44273 2.0572 11.8927C2.06138 13.7537 2.59064 15.5774 3.58378 17.1531L3.81972 17.5271L2.83703 21.1744L6.56485 20.1931L6.92595 20.4072C8.44258 21.308 10.1795 21.7843 11.9489 21.7853L11.9527 21.7853C17.3867 21.7853 21.7929 17.3509 21.7749 11.9006C21.7742 10.6015 21.5166 9.31458 21.017 8.11421C20.5173 6.91384 19.7856 5.82391 18.8642 4.90752C17.9478 3.98612 16.859 3.25549 15.6608 2.75792C14.4625 2.26036 13.1786 2.00574 11.8835 2.00882Z" fill="url(#paint0_linear_5539_13593)"/>
<path fill-rule="evenodd" clip-rule="evenodd" d="M8.93317 6.91988C8.7092 6.42496 8.4754 6.41494 8.26434 6.40637L7.6962 6.39941C7.49856 6.39941 7.17769 6.47379 6.90731 6.77129C6.63692 7.06879 5.87365 7.78781 5.87904 9.25026C5.88443 10.7127 6.95171 12.1258 7.10044 12.3244C7.24916 12.5229 9.16289 15.6197 12.1799 16.8112C14.687 17.8013 15.1957 17.6044 15.7391 17.5549C16.2826 17.5055 17.49 16.8359 17.7343 16.1418C17.9785 15.4477 17.9765 14.853 17.902 14.7287C17.8276 14.6043 17.6297 14.5304 17.3325 14.3817C17.0353 14.2329 15.5758 13.5139 15.3038 13.4146C15.0317 13.3154 14.8341 13.266 14.6374 13.5636C14.4407 13.8611 13.8758 14.5303 13.7036 14.7287C13.5313 14.927 13.3587 14.9519 13.0616 14.8034C12.7644 14.6548 11.8088 14.3408 10.6728 13.3281C9.78882 12.5402 9.19052 11.5672 9.01628 11.2699C8.84204 10.9725 8.99621 10.8115 9.1443 10.6634C9.27681 10.5302 9.43933 10.3163 9.58717 10.1428C9.735 9.96928 9.7834 9.84526 9.88133 9.6472C9.97926 9.44913 9.92945 9.27516 9.85474 9.12657C9.78004 8.97798 9.19876 7.50777 8.93317 6.91988Z" fill="white"/>
</g>
<defs>
<linearGradient id="paint0_linear_5539_13593" x1="11.6832" y1="3.19559" x2="11.7838" y2="20.0962" gradientUnits="userSpaceOnUse">
<stop stop-color="#57D163"/>
<stop offset="1" stop-color="#23B33A"/>
</linearGradient>
<clipPath id="clip0_5539_13593">
<rect width="24" height="24" fill="white"/>
</clipPath>
</defs>
</svg>
