<svg width="24" height="24" viewBox="0 0 24 24" fill="none" xmlns="http://www.w3.org/2000/svg">
<g clip-path="url(#clip0_3849_5074)">
<path d="M-0.0444115 12.0001C-0.0689644 5.37244 5.28233 7.47635e-08 11.9111 1.67032e-07C18.5375 2.59267e-07 23.931 5.37244 23.9556 12.0001C23.9801 18.6277 18.6264 24.0002 12 24.0002C5.37124 24.0002 -0.0198586 18.6277 -0.0444115 12.0001Z" fill="#FC3F1D"/>
<path d="M13.4623 6.79925L12.3576 6.79925C10.3323 6.79925 9.27088 7.82886 9.27648 9.34687C9.28282 11.0629 10.0223 11.8669 11.5385 12.8977L12.7909 13.7425L9.22052 19.1269L6.53766 19.1269L9.74195 14.3101C7.88389 12.9769 6.83896 11.6821 6.83088 9.49207C6.82075 6.74645 8.72076 4.87204 12.3374 4.87204L15.9277 4.87204L15.9802 19.1137L13.5078 19.1137L13.4623 6.79925Z" fill="white"/>
</g>
<defs>
<clipPath id="clip0_3849_5074">
<rect width="24" height="24" fill="white"/>
</clipPath>
</defs>
</svg>
