<svg width="24" height="24" viewBox="0 0 24 24" fill="none" xmlns="http://www.w3.org/2000/svg">
<g id="Camera">
<g id="Icon">
<path d="M17.25 6H16.869L15.231 3.876C15.0199 3.60435 14.7497 3.38431 14.441 3.23254C14.1323 3.08077 13.793 3.00125 13.449 3H10.551C10.207 3.00125 9.86774 3.08077 9.559 3.23254C9.25026 3.38431 8.9801 3.60435 8.769 3.876L7.131 6H6.75C5.7558 6.00119 4.80267 6.39666 4.09966 7.09966C3.39666 7.80267 3.00119 8.7558 3 9.75V17.25C3.00119 18.2442 3.39666 19.1973 4.09966 19.9003C4.80267 20.6033 5.7558 20.9988 6.75 21H17.25C18.2442 20.9988 19.1973 20.6033 19.9003 19.9003C20.6033 19.1973 20.9988 18.2442 21 17.25V9.75C20.9988 8.7558 20.6033 7.80267 19.9003 7.09966C19.1973 6.39666 18.2442 6.00119 17.25 6ZM9.957 4.7925C10.0273 4.70179 10.1173 4.6283 10.2202 4.57761C10.3231 4.52693 10.4363 4.50038 10.551 4.5H13.449C13.5637 4.50049 13.6768 4.52709 13.7797 4.57776C13.8826 4.62844 13.9727 4.70187 14.043 4.7925L14.9745 6H9.0255L9.957 4.7925ZM19.5 17.25C19.5 17.8467 19.2629 18.419 18.841 18.841C18.419 19.2629 17.8467 19.5 17.25 19.5H6.75C6.15326 19.5 5.58097 19.2629 5.15901 18.841C4.73705 18.419 4.5 17.8467 4.5 17.25V9.75C4.5 9.15326 4.73705 8.58097 5.15901 8.15901C5.58097 7.73705 6.15326 7.5 6.75 7.5H17.25C17.8467 7.5 18.419 7.73705 18.841 8.15901C19.2629 8.58097 19.5 9.15326 19.5 9.75V17.25Z" fill="#EDF0F2"/>
<path d="M12 8.99991C11.1099 8.99991 10.2399 9.26383 9.49989 9.7583C8.75987 10.2528 8.18309 10.9556 7.8425 11.7778C7.5019 12.6001 7.41279 13.5049 7.58642 14.3778C7.76006 15.2507 8.18864 16.0526 8.81798 16.6819C9.44731 17.3112 10.2491 17.7398 11.1221 17.9134C11.995 18.0871 12.8998 17.998 13.722 17.6574C14.5443 17.3168 15.2471 16.74 15.7416 16C16.236 15.26 16.5 14.3899 16.5 13.4999C16.4988 12.3068 16.0243 11.1629 15.1806 10.3192C14.337 9.47559 13.1931 9.0011 12 8.99991ZM12 16.4999C11.4066 16.4999 10.8266 16.324 10.3332 15.9943C9.8399 15.6647 9.45538 15.1961 9.22832 14.648C9.00125 14.0998 8.94184 13.4966 9.0576 12.9146C9.17336 12.3327 9.45908 11.7981 9.87864 11.3786C10.2982 10.959 10.8327 10.6733 11.4147 10.5576C11.9966 10.4418 12.5998 10.5012 13.148 10.7283C13.6962 10.9553 14.1647 11.3399 14.4944 11.8332C14.824 12.3265 15 12.9066 15 13.4999C15 14.2956 14.6839 15.0586 14.1213 15.6212C13.5587 16.1838 12.7956 16.4999 12 16.4999Z" fill="#EDF0F2"/>
</g>
</g>
</svg>
