<svg width="40" height="40" viewBox="0 0 40 40" fill="none" xmlns="http://www.w3.org/2000/svg">
<path d="M24.1256 14.1262C24.614 13.6396 25.4058 13.6396 25.8942 14.1262C26.3825 14.6128 26.3825 15.4017 25.8942 15.8883L21.7762 19.991L25.8942 24.0938C26.3825 24.5804 26.3825 25.3693 25.8942 25.8558C25.4058 26.3424 24.614 26.3424 24.1256 25.8558L20.0077 21.7531L15.8898 25.8558C15.4014 26.3424 14.6096 26.3424 14.1212 25.8558C13.6329 25.3693 13.6329 24.5804 14.1212 24.0938L18.2392 19.991L14.1212 15.8883C13.6329 15.4017 13.6329 14.6128 14.1212 14.1262C14.6096 13.6396 15.4014 13.6396 15.8898 14.1262L20.0077 18.229L24.1256 14.1262Z" fill="#FF7866"/>
<path fill-rule="evenodd" clip-rule="evenodd" d="M23.4669 6.06253L30.9669 11.1237C32.7056 12.297 33.75 14.2723 33.75 16.3876V23.6124C33.75 25.7277 32.7056 27.703 30.9669 28.8763L23.4669 33.9375C21.3676 35.3542 18.6325 35.3542 16.5332 33.9375L9.03313 28.8763C7.29439 27.703 6.25 25.7277 6.25 23.6124V16.3876C6.25 14.2723 7.29439 12.297 9.03314 11.1237L16.5332 6.06251C18.6326 4.64582 21.3676 4.64583 23.4669 6.06253ZM22.0802 8.16809C20.8206 7.31807 19.1796 7.31806 17.9199 8.16808L10.4199 13.2292C9.37663 13.9332 8.75 15.1184 8.75 16.3876V23.6124C8.75 24.8816 9.37663 26.0668 10.4199 26.7708L17.9199 31.8319C19.1795 32.6819 20.8205 32.6819 22.0802 31.8319L29.5801 26.7708C30.6234 26.0668 31.25 24.8816 31.25 23.6124V16.3876C31.25 15.1184 30.6234 13.9332 29.5801 13.2292L22.0802 8.16809Z" fill="#FF7866"/>
</svg>
