<svg width="96" height="96" viewBox="0 0 96 96" fill="none" xmlns="http://www.w3.org/2000/svg">
<g clip-path="url(#clip0_425_12979)">
<path d="M96 48C96 64.7605 87.4115 79.5111 74.3961 88.0966C66.8246 93.0939 57.7533 96 48 96C47.4387 96 46.8804 95.9909 46.3221 95.9698C36.8042 95.6439 27.9894 92.5477 20.6594 87.4568C8.17503 78.7899 0 64.3501 0 48C0 21.4923 21.4923 0 48 0C74.5077 0 96 21.4923 96 48Z" fill="#E4FFF0"/>
<path d="M38.2919 37.4065C37.1422 35.8373 16.6337 39.3771 15.4568 35.6985C14.5937 33.0067 14.1531 22.6528 14.8291 21.0625C12.7861 25.8697 11.2199 30.9637 10.0068 36.121C9.82872 36.8845 9.65369 37.7204 9.52393 38.5834C9.25837 40.3518 9.17991 42.2258 9.65369 43.8132C10.4111 46.3571 12.3304 46.7313 14.5816 47.012C21.2056 47.8448 27.7842 49.1002 34.2814 50.772C34.1999 49.6042 34.2271 48.4303 34.3538 47.2685C34.7491 43.6321 36.1252 40.1285 38.2919 37.4035V37.4065Z" fill="#29609B"/>
<path d="M85.5949 38.2887C85.4651 37.4256 85.2931 36.5897 85.1151 35.8262C83.908 30.6659 82.3478 25.572 80.3108 20.7617C80.9838 22.3521 80.5342 32.7059 79.6681 35.3977C78.4851 39.0733 57.9827 35.5124 56.8299 37.0816C58.9936 39.8096 60.3667 43.3162 60.759 46.9526C60.8827 48.1144 60.9099 49.2883 60.8284 50.4562C67.3286 48.7904 73.9102 47.541 80.5342 46.7172C82.7854 46.4366 84.7047 46.0654 85.4651 43.5214C85.9389 41.9341 85.8635 40.0571 85.6009 38.2917L85.5949 38.2887Z" fill="#5494CD"/>
<path d="M76.3727 59.3915C77.8031 65.8464 78.298 72.6001 77.8363 79.3085C76.9732 78.8136 76.1101 78.3217 75.2441 77.8268C75.1958 81.2579 74.9121 84.6951 74.3961 88.0961C66.8246 93.0935 57.7533 95.9995 48 95.9995C47.4387 95.9995 46.8804 95.9905 46.3221 95.9694V31.9965C46.3221 31.9965 50.0853 27.0807 58.0068 27.7264C56.8269 28.2877 54.3765 29.8841 53.7095 31.6917C57.3187 30.7049 60.7559 31.5077 63.2637 33.2791C61.9419 33.5597 60.9008 34.5405 60.8223 35.1802C62.7627 35.5816 64.6669 36.1761 66.5077 36.9456C69.3866 38.1467 72.1147 39.7853 74.5922 41.8072C73.2524 41.8585 71.9125 41.9098 70.5726 41.9611C72.5764 43.304 74.2814 45.187 75.5247 47.4202C75.6605 47.6586 75.7873 47.903 75.911 48.1504C75.2229 47.8215 74.4293 47.7672 73.696 47.9996C76.9159 51.6299 79.149 56.3707 80.0483 61.4737C78.8231 60.7796 77.5979 60.0856 76.3727 59.3915Z" fill="#08BED0"/>
<path d="M46.3221 31.9954V95.9683C36.8042 95.6423 27.9894 92.5462 20.6594 87.4552C19.5458 83.3029 18.9151 78.9664 18.7944 74.5907C18.7853 74.2617 18.4051 74.1561 18.2542 74.4428C18.049 74.8351 17.8016 75.2033 17.5179 75.5292C17.3278 75.7495 17.0019 75.6167 17.0049 75.3149C17.0441 70.4624 17.8408 65.5918 19.3436 60.9898C19.4462 60.6759 19.1384 60.4134 18.9 60.6126C17.5239 61.7351 16.2474 63.0177 15.0947 64.43C14.8834 64.6895 14.5183 64.4692 14.5967 64.1312C15.7737 58.9287 17.8197 53.9464 20.596 49.5375C20.771 49.2599 20.5175 48.9098 20.2429 49.0486L17.7986 50.301C17.5119 50.4488 17.2584 50.0686 17.4545 49.791C17.9675 49.0577 18.4987 48.3394 19.0509 47.6393C21.782 44.1599 24.9626 41.1271 28.4511 38.6797C27.9924 39.0267 24.7031 37.9313 23.7495 37.4304C23.6529 37.3791 23.5805 37.3338 23.5383 37.2976C26.8155 35.8008 31.7042 33.972 35.1958 33.8544C34.3538 31.3828 32.1931 29.4243 28.1132 28.9626C38.292 26.3583 44.1494 31.0388 46.3221 31.9954Z" fill="#0691AE"/>
<path d="M47.3663 78.3558C57.8645 78.3558 66.375 69.4967 66.375 58.5685C66.375 47.6403 57.8645 38.7812 47.3663 38.7812C36.8681 38.7812 28.3576 47.6403 28.3576 58.5685C28.3576 69.4967 36.8681 78.3558 47.3663 78.3558Z" fill="white"/>
<path d="M46.3221 38.8125C36.3153 39.3768 28.3666 48.0015 28.3606 58.5605C28.3546 69.1286 36.3063 77.7623 46.3221 78.3266V38.8125Z" fill="#E0E0E0"/>
<path d="M46.5877 47.1289C43.9683 47.319 41.4153 48.4718 39.5081 50.5661C35.5458 54.9056 35.8536 61.6381 40.1961 65.5974C41.9524 67.1998 44.0981 68.1021 46.2919 68.3254C48.3138 61.1312 48.7001 53.7377 46.5877 47.1289Z" fill="#02A486"/>
<path d="M55.2274 64.9105C59.1897 60.571 58.8819 53.8385 54.5394 49.8792C52.2912 47.8271 49.4032 46.9248 46.5877 47.13C48.6971 53.7359 48.3138 61.1323 46.2919 68.3266C49.5269 68.6525 52.8676 67.4997 55.2274 64.9135V64.9105Z" fill="#04BF8A"/>
<path d="M46.7265 64.0479C48.6548 64.2411 50.6465 63.556 52.0528 62.014C54.4127 59.4278 54.2316 55.4172 51.6424 53.0543C50.3025 51.8322 48.5794 51.292 46.9045 51.4157C45.3444 51.5304 43.8234 52.2154 42.6858 53.4648C40.3259 56.0509 40.507 60.0615 43.0962 62.4244C44.1433 63.378 45.4228 63.9182 46.7295 64.0479H46.7265Z" fill="#263238"/>
</g>
<defs>
<clipPath id="clip0_425_12979">
<rect width="96" height="96" fill="white"/>
</clipPath>
</defs>
</svg>
