<svg width="40" height="40" viewBox="0 0 40 40" fill="none" xmlns="http://www.w3.org/2000/svg">
<path fill-rule="evenodd" clip-rule="evenodd" d="M20 32.5C26.9036 32.5 32.5 26.9036 32.5 20C32.5 13.0964 26.9036 7.5 20 7.5C13.0964 7.5 7.5 13.0964 7.5 20C7.5 26.9036 13.0964 32.5 20 32.5ZM20 35C28.2843 35 35 28.2843 35 20C35 11.7157 28.2843 5 20 5C11.7157 5 5 11.7157 5 20C5 28.2843 11.7157 35 20 35Z" fill="#72E8BD"/>
<path fill-rule="evenodd" clip-rule="evenodd" d="M26.4704 15.2799C27.0062 15.7153 27.0876 16.5025 26.6523 17.0383L19.5977 25.2011C18.688 26.3207 17.0222 26.4401 15.962 25.4618L12.9023 22.7799C12.3949 22.3117 12.3632 21.5209 12.8314 21.0136C13.2996 20.5062 14.0904 20.4745 14.5977 20.9427L17.6575 23.6246L24.712 15.4618C25.1474 14.926 25.9347 14.8446 26.4704 15.2799Z" fill="#72E8BD"/>
</svg>
