<svg width="32" height="32" viewBox="0 0 32 32" fill="none" xmlns="http://www.w3.org/2000/svg">
<path d="M14.88 11.8575C14.8521 11.2642 15.4138 10.8264 16.0093 10.8264C16.6048 10.8264 17.1538 11.2544 17.1352 11.8478L16.8325 17.4508C16.8139 18.0345 16.549 18.3555 16 18.3555C15.4697 18.3555 15.2106 18.0345 15.1827 17.4411L14.88 11.8575Z" fill="#FAD98C"/>
<path d="M16 22.9566C16.8359 22.9566 17.5136 22.3012 17.5136 21.4926C17.5136 20.6841 16.8359 20.0286 16 20.0286C15.1641 20.0286 14.4865 20.6841 14.4865 21.4926C14.4865 22.3012 15.1641 22.9566 16 22.9566Z" fill="#FAD98C"/>
<path fill-rule="evenodd" clip-rule="evenodd" d="M18.6369 6.54314L27.6053 22.4781C28.7431 24.4996 27.285 27 24.9685 27H7.03152C4.71495 27 3.25691 24.4996 4.39467 22.4781L13.3631 6.54314C14.5212 4.48562 17.4788 4.48562 18.6369 6.54314ZM16.879 7.53607C16.4929 6.85023 15.5071 6.85023 15.1211 7.53607L6.15257 23.471C5.77332 24.1448 6.25933 24.9783 7.03152 24.9783H24.9685C25.7407 24.9783 26.2267 24.1448 25.8474 23.471L16.879 7.53607Z" fill="#FAD98C"/>
</svg>
